<svg id="visual" viewBox="0 0 960 540" width="960" height="540" xmlns="http://www.w3.org/2000/svg" xmlns:xlink="http://www.w3.org/1999/xlink" version="1.1"><path d="M825 540L825 522C825 504 825 468 826.5 432C828 396 831 360 831 324C831 288 828 252 826.5 216C825 180 825 144 828.2 108C831.3 72 837.7 36 840.8 18L844 0L960 0L960 18C960 36 960 72 960 108C960 144 960 180 960 216C960 252 960 288 960 324C960 360 960 396 960 432C960 468 960 504 960 522L960 540Z" fill="#6198ff"></path><path d="M729 540L729 522C729 504 729 468 729 432C729 396 729 360 727.3 324C725.7 288 722.3 252 720.7 216C719 180 719 144 723.8 108C728.7 72 738.3 36 743.2 18L748 0L845 0L841.8 18C838.7 36 832.3 72 829.2 108C826 144 826 180 827.5 216C829 252 832 288 832 324C832 360 829 396 827.5 432C826 468 826 504 826 522L826 540Z" fill="#4f8cff"></path><path d="M671 540L671 522C671 504 671 468 671 432C671 396 671 360 669.3 324C667.7 288 664.3 252 662.7 216C661 180 661 144 665.8 108C670.7 72 680.3 36 685.2 18L690 0L749 0L744.2 18C739.3 36 729.7 72 724.8 108C720 144 720 180 721.7 216C723.3 252 726.7 288 728.3 324C730 360 730 396 730 432C730 468 730 504 730 522L730 540Z" fill="#3c80ff"></path><path d="M594 540L594 522C594 504 594 468 594 432C594 396 594 360 590.8 324C587.7 288 581.3 252 579.8 216C578.3 180 581.7 144 586.5 108C591.3 72 597.7 36 600.8 18L604 0L691 0L686.2 18C681.3 36 671.7 72 666.8 108C662 144 662 180 663.7 216C665.3 252 668.7 288 670.3 324C672 360 672 396 672 432C672 468 672 504 672 522L672 540Z" fill="#2573ff"></path><path d="M383 540L383 522C383 504 383 468 384.7 432C386.3 396 389.7 360 388 324C386.3 288 379.7 252 378 216C376.3 180 379.7 144 378.2 108C376.7 72 370.3 36 367.2 18L364 0L605 0L601.8 18C598.7 36 592.3 72 587.5 108C582.7 144 579.3 180 580.8 216C582.3 252 588.7 288 591.8 324C595 360 595 396 595 432C595 468 595 504 595 522L595 540Z" fill="#0066ff"></path><path d="M172 540L173.5 522C175 504 178 468 181.2 432C184.3 396 187.7 360 187.7 324C187.7 288 184.3 252 182.7 216C181 180 181 144 179.5 108C178 72 175 36 173.5 18L172 0L365 0L368.2 18C371.3 36 377.7 72 379.2 108C380.7 144 377.3 180 379 216C380.7 252 387.3 288 389 324C390.7 360 387.3 396 385.7 432C384 468 384 504 384 522L384 540Z" fill="#005fee"></path><path d="M105 540L105 522C105 504 105 468 106.5 432C108 396 111 360 111 324C111 288 108 252 106.5 216C105 180 105 144 105 108C105 72 105 36 105 18L105 0L173 0L174.5 18C176 36 179 72 180.5 108C182 144 182 180 183.7 216C185.3 252 188.7 288 188.7 324C188.7 360 185.3 396 182.2 432C179 468 176 504 174.5 522L173 540Z" fill="#0059dd"></path><path d="M57 540L57 522C57 504 57 468 58.5 432C60 396 63 360 63 324C63 288 60 252 58.5 216C57 180 57 144 57 108C57 72 57 36 57 18L57 0L106 0L106 18C106 36 106 72 106 108C106 144 106 180 107.5 216C109 252 112 288 112 324C112 360 109 396 107.5 432C106 468 106 504 106 522L106 540Z" fill="#0052cc"></path><path d="M0 540L0 522C0 504 0 468 0 432C0 396 0 360 0 324C0 288 0 252 0 216C0 180 0 144 0 108C0 72 0 36 0 18L0 0L58 0L58 18C58 36 58 72 58 108C58 144 58 180 59.5 216C61 252 64 288 64 324C64 360 61 396 59.5 432C58 468 58 504 58 522L58 540Z" fill="#004cbb"></path></svg>